<svg xmlns="http://www.w3.org/2000/svg" width="256" height="32" viewBox="0 0 256 32" shape-rendering="crispEdges">
  <!-- Frame 1: Standing upright, arms out slightly -->
  <g transform="translate(0,0)">
    <!-- head -->
    <rect x="14" y="3" width="4" height="4" fill="white"/>
    <!-- neck/torso -->
    <rect x="14" y="7" width="4" height="7" fill="white"/>
    <!-- left arm -->
    <rect x="11" y="8" width="3" height="2" fill="white"/>
    <!-- right arm -->
    <rect x="18" y="8" width="3" height="2" fill="white"/>
    <!-- hips -->
    <rect x="13" y="14" width="6" height="2" fill="white"/>
    <!-- left leg -->
    <rect x="12" y="16" width="3" height="8" fill="white"/>
    <!-- right leg bent -->
    <rect x="17" y="16" width="3" height="3" fill="white"/>
    <rect x="18" y="19" width="3" height="6" fill="white"/>
  </g>

  <!-- Frame 2: Leaning, legs separating -->
  <g transform="translate(32,0)">
    <!-- head -->
    <rect x="16" y="4" width="4" height="4" fill="white"/>
    <!-- torso leaning -->
    <rect x="14" y="8" width="4" height="6" fill="white"/>
    <!-- back arm up -->
    <rect x="11" y="6" width="3" height="2" fill="white"/>
    <!-- front arm down -->
    <rect x="18" y="10" width="3" height="2" fill="white"/>
    <!-- hips -->
    <rect x="12" y="14" width="5" height="2" fill="white"/>
    <!-- back leg going up -->
    <rect x="8" y="14" width="4" height="3" fill="white"/>
    <rect x="6" y="17" width="3" height="4" fill="white"/>
    <!-- front leg down -->
    <rect x="15" y="16" width="3" height="3" fill="white"/>
    <rect x="17" y="19" width="3" height="6" fill="white"/>
  </g>

  <!-- Frame 3: Full extension stride -->
  <g transform="translate(64,0)">
    <!-- head -->
    <rect x="16" y="5" width="4" height="4" fill="white"/>
    <!-- torso -->
    <rect x="14" y="9" width="4" height="5" fill="white"/>
    <!-- back arm extended up-back -->
    <rect x="9" y="6" width="4" height="2" fill="white"/>
    <rect x="7" y="8" width="2" height="3" fill="white"/>
    <!-- front arm extended down-front -->
    <rect x="18" y="11" width="4" height="2" fill="white"/>
    <rect x="22" y="13" width="2" height="3" fill="white"/>
    <!-- hips -->
    <rect x="12" y="14" width="5" height="2" fill="white"/>
    <!-- back leg extended up -->
    <rect x="6" y="13" width="4" height="3" fill="white"/>
    <rect x="3" y="15" width="3" height="3" fill="white"/>
    <!-- front leg extended down -->
    <rect x="16" y="16" width="4" height="3" fill="white"/>
    <rect x="19" y="19" width="3" height="6" fill="white"/>
  </g>

  <!-- Frame 4: Airborne tucked -->
  <g transform="translate(96,0)">
    <!-- head -->
    <rect x="16" y="3" width="4" height="4" fill="white"/>
    <!-- torso -->
    <rect x="14" y="7" width="4" height="5" fill="white"/>
    <!-- back arm up -->
    <rect x="9" y="4" width="4" height="2" fill="white"/>
    <rect x="7" y="6" width="2" height="3" fill="white"/>
    <!-- front arm down -->
    <rect x="18" y="9" width="4" height="2" fill="white"/>
    <rect x="22" y="11" width="2" height="3" fill="white"/>
    <!-- hips -->
    <rect x="12" y="12" width="5" height="2" fill="white"/>
    <!-- back leg tucked -->
    <rect x="8" y="12" width="4" height="3" fill="white"/>
    <rect x="6" y="15" width="3" height="3" fill="white"/>
    <!-- front leg tucked -->
    <rect x="15" y="14" width="4" height="3" fill="white"/>
    <rect x="18" y="17" width="3" height="3" fill="white"/>
  </g>

  <!-- Frame 5: Mid-air X-pose -->
  <g transform="translate(128,0)">
    <!-- head -->
    <rect x="14" y="3" width="4" height="4" fill="white"/>
    <!-- torso -->
    <rect x="12" y="7" width="4" height="5" fill="white"/>
    <!-- back arm -->
    <rect x="7" y="6" width="4" height="2" fill="white"/>
    <rect x="5" y="8" width="2" height="3" fill="white"/>
    <!-- front arm -->
    <rect x="16" y="8" width="4" height="2" fill="white"/>
    <rect x="20" y="6" width="2" height="3" fill="white"/>
    <!-- hips -->
    <rect x="10" y="12" width="5" height="2" fill="white"/>
    <!-- back leg forward -->
    <rect x="13" y="14" width="4" height="3" fill="white"/>
    <rect x="16" y="17" width="3" height="3" fill="white"/>
    <!-- front leg back -->
    <rect x="7" y="14" width="4" height="3" fill="white"/>
    <rect x="5" y="17" width="3" height="4" fill="white"/>
  </g>

  <!-- Frame 6: Reaching down -->
  <g transform="translate(160,0)">
    <!-- head -->
    <rect x="12" y="5" width="4" height="4" fill="white"/>
    <!-- torso -->
    <rect x="11" y="9" width="4" height="5" fill="white"/>
    <!-- back arm -->
    <rect x="6" y="10" width="4" height="2" fill="white"/>
    <rect x="4" y="12" width="2" height="3" fill="white"/>
    <!-- front arm up -->
    <rect x="15" y="8" width="4" height="2" fill="white"/>
    <rect x="19" y="5" width="2" height="4" fill="white"/>
    <!-- hips -->
    <rect x="9" y="14" width="5" height="2" fill="white"/>
    <!-- back leg up behind -->
    <rect x="13" y="14" width="4" height="3" fill="white"/>
    <rect x="16" y="17" width="3" height="4" fill="white"/>
    <rect x="18" y="21" width="3" height="4" fill="white"/>
    <!-- front leg down -->
    <rect x="6" y="16" width="4" height="3" fill="white"/>
    <rect x="3" y="19" width="3" height="6" fill="white"/>
  </g>

  <!-- Frame 7: Wide landing stance -->
  <g transform="translate(192,0)">
    <!-- head -->
    <rect x="14" y="5" width="4" height="4" fill="white"/>
    <!-- torso -->
    <rect x="13" y="9" width="4" height="5" fill="white"/>
    <!-- back arm -->
    <rect x="9" y="10" width="4" height="2" fill="white"/>
    <!-- front arm up -->
    <rect x="17" y="8" width="4" height="2" fill="white"/>
    <rect x="20" y="5" width="2" height="4" fill="white"/>
    <!-- hips -->
    <rect x="11" y="14" width="6" height="2" fill="white"/>
    <!-- left leg -->
    <rect x="8" y="16" width="4" height="3" fill="white"/>
    <rect x="6" y="19" width="3" height="5" fill="white"/>
    <!-- right leg -->
    <rect x="16" y="16" width="4" height="3" fill="white"/>
    <rect x="18" y="19" width="3" height="5" fill="white"/>
  </g>

  <!-- Frame 8: Push off, arm raised -->
  <g transform="translate(224,0)">
    <!-- head -->
    <rect x="14" y="3" width="4" height="4" fill="white"/>
    <!-- torso -->
    <rect x="13" y="7" width="4" height="6" fill="white"/>
    <!-- back arm -->
    <rect x="10" y="8" width="3" height="2" fill="white"/>
    <!-- front arm raised -->
    <rect x="17" y="6" width="3" height="2" fill="white"/>
    <rect x="19" y="3" width="2" height="4" fill="white"/>
    <!-- hips -->
    <rect x="11" y="13" width="6" height="2" fill="white"/>
    <!-- left leg -->
    <rect x="10" y="15" width="3" height="4" fill="white"/>
    <rect x="8" y="19" width="3" height="6" fill="white"/>
    <!-- right leg -->
    <rect x="15" y="15" width="3" height="4" fill="white"/>
    <rect x="17" y="19" width="3" height="6" fill="white"/>
  </g>
</svg>
